HIERARCHY
ROOT Hips
{
	OFFSET -0.179506 -22.333345 2.821913
	CHANNELS 6 Xposition Yposition Zposition Zrotation Yrotation Xrotation 
	JOINT LeftUpLeg
	{
		OFFSET 6.951974 -9.140623 -0.681533
		CHANNELS 3 Zrotation Yrotation Xrotation
		JOINT LeftLeg
		{
			OFFSET 3.427654 -37.519855 -0.449580
			CHANNELS 3 Zrotation Yrotation Xrotation
			JOINT LeftFoot
			{
				OFFSET -1.359570 -39.796059 -4.369333
				CHANNELS 3 Zrotation Yrotation Xrotation
				JOINT LeftToe
				{
					OFFSET 2.635814 -5.579078 11.928840
					CHANNELS 3 Zrotation Yrotation Xrotation
					End Site
					{
						OFFSET 0.000000 0.000000 0.000000
					}
				}
			}
		}
	}
	JOINT RightUpLeg
	{
		OFFSET -6.767048 -9.052170 -0.431982
		CHANNELS 3 Zrotation Yrotation Xrotation
		JOINT RightLeg
		{
			OFFSET -3.829005 -38.256897 -0.885003
			CHANNELS 3 Zrotation Yrotation Xrotation
			JOINT RightFoot
			{
				OFFSET 1.577377 -39.841461 -4.231180
				CHANNELS 3 Zrotation Yrotation Xrotation
				JOINT RightToe
				{
					OFFSET -2.537174 -4.814398 12.334795
					CHANNELS 3 Zrotation Yrotation Xrotation
					End Site
					{
						OFFSET 0.000000 0.000000 0.000000
					}
				}
			}
		}
	}
	JOINT Spine
	{
		OFFSET -0.253288 10.896323 -2.669631
		CHANNELS 3 Zrotation Yrotation Xrotation
		JOINT Spine1
		{
			OFFSET 0.548704 13.518043 0.109247
			CHANNELS 3 Zrotation Yrotation Xrotation
			JOINT Spine2
			{
				OFFSET 0.145701 5.292222 2.542457
				CHANNELS 3 Zrotation Yrotation Xrotation
				JOINT Neck
				{
					OFFSET -0.277840 21.387037 -4.285703
					CHANNELS 3 Zrotation Yrotation Xrotation
					JOINT Head
					{
						OFFSET 0.515184 6.496960 5.134897
						CHANNELS 3 Zrotation Yrotation Xrotation
						End Site
						{
							OFFSET 0.000000 0.000000 0.000000
						}
					}
				}
				JOINT LeftShoulder
				{
					OFFSET 7.884473 12.174932 -3.408961
					CHANNELS 3 Zrotation Yrotation Xrotation
					JOINT LeftArm
					{
						OFFSET 9.097692 3.046888 -0.886815
						CHANNELS 3 Zrotation Yrotation Xrotation
						JOINT LeftForeArm
						{
							OFFSET 25.961220 -1.277207 -2.745643
							CHANNELS 3 Zrotation Yrotation Xrotation
							JOINT LeftHand
							{
								OFFSET 24.923361 0.898606 -0.117091
								CHANNELS 3 Zrotation Yrotation Xrotation
								End Site
								{
									OFFSET 0.000000 0.000000 0.000000
								}
							}
						}
					}
				}
				JOINT RightShoulder
				{
					OFFSET -8.175920 11.883285 -3.861528
					CHANNELS 3 Zrotation Yrotation Xrotation
					JOINT RightArm
					{
						OFFSET -9.601238 3.255117 -0.914307
						CHANNELS 3 Zrotation Yrotation Xrotation
						JOINT RightForeArm
						{
							OFFSET -25.374195 -1.332924 -2.140099
							CHANNELS 3 Zrotation Yrotation Xrotation
							JOINT RightHand
							{
								OFFSET -25.529810 0.777228 -0.555919
								CHANNELS 3 Zrotation Yrotation Xrotation
								End Site
								{
									OFFSET 0.000000 0.000000 0.000000
								}
							}
						}
					}
				}
			}
		}
	}
}
MOTION
Frames: 7
Frame Time: 0.033333
-19.768557 17.844791 84.788857 120.368578 -1.058531 81.408411 16.549946 12.837100 -9.996182 -1.248848 18.055852 41.760216 5.551917 16.735915 -22.347081 nan nan nan -20.759795 -3.972176 -8.015934 -2.427819 -3.576604 41.566423 3.423771 -2.525091 -20.718294 nan nan nan 3.335312 0.584133 9.383456 1.537288 -6.664325 11.750647 -1.302104 -4.746391 -4.286705 5.398170 24.591791 24.661699 -14.793829 20.653409 13.432630 -15.332116 -9.811393 -5.835334 -33.802773 -11.435454 -6.185729 80.072156 -41.985446 -63.358902 -1.298515 -17.847538 -7.405919 13.535974 24.359913 -9.117484 68.967351 23.815936 34.279977 151.549765 84.119531 166.335345 4.623651 13.348450 -21.749151 
-19.891584 18.316483 84.811737 121.752301 -1.305125 81.127877 15.700095 12.096241 -9.994248 -1.398395 17.543359 41.496181 5.876363 16.607715 -22.531500 nan nan nan -20.780329 -3.931180 -8.391844 -3.782766 -3.971740 43.859149 3.565499 -3.847816 -19.135057 nan nan nan 3.165591 0.491911 9.761705 1.575284 -6.723780 11.306862 -1.377267 -4.639508 -4.017942 5.164472 24.048461 24.710113 -14.509411 20.228023 13.258804 -15.234948 -9.932953 -6.214160 -34.747485 -12.730569 -5.284590 79.718096 -42.464451 -63.117706 -1.798824 -17.726218 -7.816332 13.547289 23.862332 -9.403625 69.419831 23.159504 34.334553 150.319230 84.750494 165.427109 5.245339 12.723445 -21.890131 
-19.997711 18.799324 84.853096 123.087665 -1.537040 80.811442 14.944296 11.507030 -9.867412 -1.631783 17.068568 41.179585 6.190424 16.441410 -22.667315 nan nan nan -20.692587 -3.815322 -8.974935 -5.191927 -4.344078 46.452200 3.632668 -5.317355 -17.338603 nan nan nan 3.086042 0.236236 10.250615 1.539292 -6.710488 10.654916 -1.560811 -4.292141 -3.664492 4.902770 23.516188 24.804496 -14.196799 19.765627 13.147638 -15.231130 -10.072500 -6.442474 -35.623551 -13.950272 -4.488620 79.445022 -43.219202 -62.888176 -1.793098 -17.452226 -7.922003 13.677045 23.489755 -9.349669 69.820545 22.599607 34.010353 146.483377 85.417439 161.943072 5.599998 11.993133 -21.371467 
-20.143267 19.274202 84.884720 124.394562 -1.676250 80.481840 14.255040 10.967407 -9.781396 -1.859412 16.546514 40.919103 6.515161 16.433430 -22.804971 nan nan nan -20.464413 -3.651018 -9.798345 -6.614436 -4.637162 49.254915 3.024964 -6.786315 -15.421680 nan nan nan 3.054494 0.242345 10.518649 1.642076 -6.312343 10.485712 -1.581416 -4.336443 -3.380182 4.691585 22.826235 24.731688 -14.077587 19.159775 13.151814 -15.240620 -10.462792 -6.639738 -36.793756 -15.354109 -3.789916 79.277418 -44.016821 -62.728343 -2.502012 -17.094057 -7.829661 13.523392 23.054008 -9.655467 70.161242 21.966170 33.544138 142.461254 86.092072 157.920415 6.292757 11.414822 -21.207719 
-20.288601 19.699625 84.926659 125.727649 -1.811850 80.118445 13.565219 10.407321 -9.636468 -2.053466 15.978615 40.625413 6.761280 16.399569 -22.948218 nan nan nan -20.197302 -3.370226 -10.652381 -8.017940 -4.941085 51.970295 2.139461 -8.316546 -13.449644 nan nan nan 2.976116 0.034677 10.950600 1.701855 -6.010023 10.122349 -1.699014 -4.224259 -3.024804 4.635408 22.276187 24.710658 -13.887106 18.497056 13.210891 -15.055148 -10.573593 -6.965344 -38.067246 -16.701266 -2.910257 79.122274 -44.835498 -62.705691 -3.293732 -16.780773 -7.879994 13.564847 22.683646 -9.896827 70.504685 21.449011 33.387949 137.840323 86.986611 153.160809 6.831042 10.906777 -21.209727 
-20.425425 20.088396 84.970589 127.074119 -1.938834 79.762653 12.942971 9.873601 -9.439171 -2.293806 15.455120 40.261602 6.859947 16.232815 -23.062896 nan nan nan -19.866137 -2.894625 -11.428814 -9.294573 -5.259270 54.344656 1.443410 -9.736635 -11.774904 nan nan nan 2.842343 -0.261500 11.449505 1.750277 -5.728283 9.636362 -1.844261 -4.021578 -2.601135 4.621864 21.774345 24.732081 -13.633291 17.766102 13.315240 -14.740884 -10.488239 -7.350051 -39.473530 -18.073597 -1.832740 78.994958 -45.653005 -62.633988 -3.903901 -16.489362 -7.971199 13.772868 22.345177 -9.981321 70.705497 21.112380 33.364725 125.921460 87.922910 141.291509 7.134442 10.457023 -21.036373 
-20.549318 20.452066 85.010918 128.409103 -2.070618 79.387975 12.333402 9.312932 -9.176066 -2.523643 14.930554 39.815449 6.976721 16.061280 -23.072420 nan nan nan -19.495819 -2.249950 -12.124619 -10.030189 -5.390166 56.473077 0.971124 -10.492621 -10.930672 nan nan nan 2.605920 -0.489692 11.900422 1.811611 -5.486090 9.729085 -1.880915 -3.829847 -2.680947 4.648628 21.326014 24.841634 -13.401444 16.906828 13.245700 -14.401443 -10.293657 -7.670909 -41.115803 -19.496295 -0.599112 79.076055 -46.425488 -62.432723 -5.051977 -16.314903 -7.759361 13.962098 22.072754 -9.999601 70.975365 20.780553 33.574208 97.361183 88.865755 112.728504 7.855466 10.408422 -21.102463 
